<?xml version="1.0" encoding="UTF-8" standalone="no"?>
<!-- Created with Inkscape (http://www.inkscape.org/) -->

<svg
   xmlns:dc="http://purl.org/dc/elements/1.1/"
   xmlns:cc="http://creativecommons.org/ns#"
   xmlns:rdf="http://www.w3.org/1999/02/22-rdf-syntax-ns#"
   xmlns:svg="http://www.w3.org/2000/svg"
   xmlns="http://www.w3.org/2000/svg"
   xmlns:sodipodi="http://sodipodi.sourceforge.net/DTD/sodipodi-0.dtd"
   xmlns:inkscape="http://www.inkscape.org/namespaces/inkscape"
   id="svg4943"
   version="1.1"
   inkscape:version="0.48.4 r9939"
   width="82"
   height="109"
   sodipodi:docname="D-0_vector.svg">
  <metadata
     id="metadata4949">
    <rdf:RDF>
      <cc:Work
         rdf:about="">
        <dc:format>image/svg+xml</dc:format>
        <dc:type
           rdf:resource="http://purl.org/dc/dcmitype/StillImage" />
        <dc:title></dc:title>
      </cc:Work>
    </rdf:RDF>
  </metadata>
  <defs
     id="defs4947" />
  <sodipodi:namedview
     pagecolor="#ffffff"
     bordercolor="#666666"
     borderopacity="1"
     objecttolerance="10"
     gridtolerance="10"
     guidetolerance="10"
     inkscape:pageopacity="0"
     inkscape:pageshadow="2"
     inkscape:window-width="1317"
     inkscape:window-height="750"
     id="namedview4945"
     showgrid="false"
     inkscape:zoom="4.3302752"
     inkscape:cx="44.749056"
     inkscape:cy="52.903483"
     inkscape:window-x="49"
     inkscape:window-y="18"
     inkscape:window-maximized="1"
     inkscape:current-layer="svg4943" />
  <path
     style="fill:#000000"
     d="m 49.808692,83.601105 0,9.744445 0,9.74445 -28,0 0,-8.000006 20,0 0,-8 0,-8 -39.0000002,0 0,-8 39.0000002,0 0,-22 -19,0 0,-8 12.46999,0 -24.93227,-24.992269 5.47059,-5.470585 25.99169,25.933997 0,-28.4711418 8,0 0,32.9999988 12,0 0,-20 8,0 0,28 -20,0 0,22.52587 28.95907,28.907416 -5.90172,5.56672 z"
     id="path5047"
     inkscape:connector-curvature="0"
     sodipodi:nodetypes="cccccccccccccccccccccccccccccc" />
</svg>
